<svg xmlns="http://www.w3.org/2000/svg" xmlns:xlink="http://www.w3.org/1999/xlink" width="1074" zoomAndPan="magnify" viewBox="0 0 805.5 159.750002" height="213" preserveAspectRatio="xMidYMid meet" version="1.2"><defs><clipPath id="fefc33dc6e"><rect x="0" width="583" y="0" height="127"/></clipPath></defs><g id="7d07ac587d"><g transform="matrix(1,0,0,1,97,16)"><g clip-path="url(#fefc33dc6e)"><g style="fill:#02122b;fill-opacity:1;"><g transform="translate(0.221087, 94.71759)"><path style="stroke:none" d="M 29.296875 -63.296875 C 35.972656 -63.296875 41.804688 -61.972656 46.796875 -59.328125 C 51.785156 -56.679688 55.644531 -52.96875 58.375 -48.1875 C 61.113281 -43.40625 62.484375 -37.890625 62.484375 -31.640625 C 62.484375 -25.453125 61.113281 -19.953125 58.375 -15.140625 C 55.644531 -10.335938 51.769531 -6.613281 46.75 -3.96875 C 41.726562 -1.320312 35.910156 0 29.296875 0 L 5.59375 0 L 5.59375 -63.296875 Z M 28.3125 -13.34375 C 34.132812 -13.34375 38.671875 -14.9375 41.921875 -18.125 C 45.171875 -21.3125 46.796875 -25.816406 46.796875 -31.640625 C 46.796875 -37.472656 45.171875 -42.007812 41.921875 -45.25 C 38.671875 -48.5 34.132812 -50.125 28.3125 -50.125 L 21 -50.125 L 21 -13.34375 Z M 28.3125 -13.34375 "/></g></g><g style="fill:#02122b;fill-opacity:1;"><g transform="translate(65.764097, 94.71759)"><path style="stroke:none" d="M 35.515625 0.625 C 29.566406 0.625 24.113281 -0.753906 19.15625 -3.515625 C 14.195312 -6.273438 10.257812 -10.132812 7.34375 -15.09375 C 4.425781 -20.0625 2.96875 -25.640625 2.96875 -31.828125 C 2.96875 -38.015625 4.425781 -43.570312 7.34375 -48.5 C 10.257812 -53.425781 14.195312 -57.269531 19.15625 -60.03125 C 24.113281 -62.800781 29.566406 -64.1875 35.515625 -64.1875 C 41.472656 -64.1875 46.929688 -62.800781 51.890625 -60.03125 C 56.847656 -57.269531 60.753906 -53.425781 63.609375 -48.5 C 66.460938 -43.570312 67.890625 -38.015625 67.890625 -31.828125 C 67.890625 -25.640625 66.445312 -20.0625 63.5625 -15.09375 C 60.675781 -10.132812 56.769531 -6.273438 51.84375 -3.515625 C 46.914062 -0.753906 41.472656 0.625 35.515625 0.625 Z M 35.515625 -13.4375 C 40.566406 -13.4375 44.609375 -15.117188 47.640625 -18.484375 C 50.679688 -21.847656 52.203125 -26.296875 52.203125 -31.828125 C 52.203125 -37.410156 50.679688 -41.867188 47.640625 -45.203125 C 44.609375 -48.546875 40.566406 -50.21875 35.515625 -50.21875 C 30.410156 -50.21875 26.335938 -48.5625 23.296875 -45.25 C 20.265625 -41.945312 18.75 -37.472656 18.75 -31.828125 C 18.75 -26.234375 20.265625 -21.769531 23.296875 -18.4375 C 26.335938 -15.101562 30.410156 -13.4375 35.515625 -13.4375 Z M 35.515625 -13.4375 "/></g></g><g style="fill:#02122b;fill-opacity:1;"><g transform="translate(136.626276, 94.71759)"><path style="stroke:none" d="M 29.296875 -63.296875 C 35.972656 -63.296875 41.804688 -61.972656 46.796875 -59.328125 C 51.785156 -56.679688 55.644531 -52.96875 58.375 -48.1875 C 61.113281 -43.40625 62.484375 -37.890625 62.484375 -31.640625 C 62.484375 -25.453125 61.113281 -19.953125 58.375 -15.140625 C 55.644531 -10.335938 51.769531 -6.613281 46.75 -3.96875 C 41.726562 -1.320312 35.910156 0 29.296875 0 L 5.59375 0 L 5.59375 -63.296875 Z M 28.3125 -13.34375 C 34.132812 -13.34375 38.671875 -14.9375 41.921875 -18.125 C 45.171875 -21.3125 46.796875 -25.816406 46.796875 -31.640625 C 46.796875 -37.472656 45.171875 -42.007812 41.921875 -45.25 C 38.671875 -48.5 34.132812 -50.125 28.3125 -50.125 L 21 -50.125 L 21 -13.34375 Z M 28.3125 -13.34375 "/></g></g><g style="fill:#02122b;fill-opacity:1;"><g transform="translate(202.169286, 94.71759)"><path style="stroke:none" d="M 21 -63.296875 L 21 0 L 5.59375 0 L 5.59375 -63.296875 Z M 21 -63.296875 "/></g></g><g style="fill:#02122b;fill-opacity:1;"><g transform="translate(228.765143, 94.71759)"><path style="stroke:none" d="M 42.28125 0 L 21 -27.953125 L 21 0 L 5.59375 0 L 5.59375 -63.296875 L 21 -63.296875 L 21 -35.515625 L 42.109375 -63.296875 L 60.21875 -63.296875 L 35.703125 -32.28125 L 61.125 0 Z M 42.28125 0 "/></g></g><g style="fill:#02122b;fill-opacity:1;"><g transform="translate(291.603487, 94.71759)"><path style="stroke:none" d=""/></g></g><g style="fill:#02122b;fill-opacity:1;"><g transform="translate(310.716441, 94.71759)"><path style="stroke:none" d="M 65 -63.296875 L 42.546875 0 L 23.265625 0 L 0.8125 -63.296875 L 17.21875 -63.296875 L 32.90625 -15.5 L 48.6875 -63.296875 Z M 65 -63.296875 "/></g></g><g style="fill:#02122b;fill-opacity:1;"><g transform="translate(376.529897, 94.71759)"><path style="stroke:none" d="M 21 -50.9375 L 21 -38.140625 L 41.65625 -38.140625 L 41.65625 -26.234375 L 21 -26.234375 L 21 -12.34375 L 44.359375 -12.34375 L 44.359375 0 L 5.59375 0 L 5.59375 -63.296875 L 44.359375 -63.296875 L 44.359375 -50.9375 Z M 21 -50.9375 "/></g></g><g style="fill:#02122b;fill-opacity:1;"><g transform="translate(425.304011, 94.71759)"><path style="stroke:none" d="M 44.359375 0 L 31.46875 -19.390625 L 20.109375 0 L 2.609375 0 L 22.90625 -32.1875 L 2.15625 -63.296875 L 20.109375 -63.296875 L 32.8125 -44.171875 L 44 -63.296875 L 61.484375 -63.296875 L 41.375 -31.375 L 62.296875 0 Z M 44.359375 0 "/></g></g><g style="fill:#02122b;fill-opacity:1;"><g transform="translate(489.765148, 94.71759)"><path style="stroke:none" d="M 21 -50.9375 L 21 -38.140625 L 41.65625 -38.140625 L 41.65625 -26.234375 L 21 -26.234375 L 21 -12.34375 L 44.359375 -12.34375 L 44.359375 0 L 5.59375 0 L 5.59375 -63.296875 L 44.359375 -63.296875 L 44.359375 -50.9375 Z M 21 -50.9375 "/></g></g><g style="fill:#02122b;fill-opacity:1;"><g transform="translate(538.539262, 94.71759)"><path style="stroke:none" d="M 21 -11.90625 L 41.203125 -11.90625 L 41.203125 0 L 5.59375 0 L 5.59375 -63.296875 L 21 -63.296875 Z M 21 -11.90625 "/></g></g></g></g></g></svg>